<svg x="0" y="0" xml:space="preserve" viewBox="0 0 36 36"><circle fill="#FFF" cx="18" cy="18" r="17.5"></circle><path d="M18 36C8.1 36 0 27.9 0 18S8.1 0 18 0s18 8.1 18 18-8.1 18-18 18zm0-35C8.6 1 1 8.6 1 18s7.6 17 17 17 17-7.6 17-17S27.4 1 18 1z"></path><path d="M12.2 15.3v.2c.4 4 2.7 7.1 5.6 7.1 2.9 0 5.3-3.2 5.6-7.3 0-.3.1-.6.1-.9 0-.3 0-.6-.1-.9-.4-2.8-2.8-5-5.6-5-2.9 0-5.2 2.2-5.6 5 0 .3-.1.6-.1.9v.4c0 .2 0 .3.1.5zm2.1-3.2s3.9 1.9 6.6 0c0 0 1.6 2.5 1.1 3.4l.8-.9c0 .2 0 .5-.1.7-.3 3.6-2.4 6.4-4.9 6.4-2.5 0-4.6-2.7-4.9-6.2.2.1.5.2.8.4 0 0-.6-3.3.6-3.8z"></path><path d="M29.9 30.9s0-3.7-2.5-6.4c-1.2-1.4-3-2.4-4.9-2.5 0 1.3-2 2.4-4.5 2.4s-4.5-1.1-4.5-2.4c-2 .2-3.7 1.1-4.9 2.5-2.5 2.7-2.5 6.4-2.5 6.4 3.2 2.9 7.3 4.6 11.9 4.6 4.6 0 8.8-1.8 11.9-4.6z"></path></svg>