<svg class="bar-icon js-bar-icon" width="24" height="24" viewBox="0 0 24 24" fill="none"
    xmlns="http://www.w3.org/2000/svg">
    <path
        d="M22.5 11.5H21.5C21.3838 9.15061 20.3983 6.92835 18.735 5.26505C17.0717 3.60175 14.8494 2.61623 12.5 2.5V1.5C12.5 1.36739 12.4473 1.24021 12.3536 1.14645C12.2598 1.05268 12.1326 1 12 1C11.8674 1 11.7402 1.05268 11.6464 1.14645C11.5527 1.24021 11.5 1.36739 11.5 1.5V2.5C9.15061 2.61623 6.92835 3.60175 5.26505 5.26505C3.60175 6.92835 2.61623 9.15061 2.5 11.5H1.5C1.36739 11.5 1.24021 11.5527 1.14645 11.6464C1.05268 11.7402 1 11.8674 1 12C1 12.1326 1.05268 12.2598 1.14645 12.3536C1.24021 12.4473 1.36739 12.5 1.5 12.5H2.5C2.61623 14.8494 3.60175 17.0717 5.26505 18.735C6.92835 20.3983 9.15061 21.3838 11.5 21.5V22.5C11.5 22.6326 11.5527 22.7598 11.6464 22.8536C11.7402 22.9473 11.8674 23 12 23C12.1326 23 12.2598 22.9473 12.3536 22.8536C12.4473 22.7598 12.5 22.6326 12.5 22.5V21.5C14.8494 21.3838 17.0717 20.3983 18.735 18.735C20.3983 17.0717 21.3838 14.8494 21.5 12.5H22.5C22.6326 12.5 22.7598 12.4473 22.8536 12.3536C22.9473 12.2598 23 12.1326 23 12C23 11.8674 22.9473 11.7402 22.8536 11.6464C22.7598 11.5527 22.6326 11.5 22.5 11.5ZM12.5 20.5V19.5C12.5 19.3674 12.4473 19.2402 12.3536 19.1464C12.2598 19.0527 12.1326 19 12 19C11.8674 19 11.7402 19.0527 11.6464 19.1464C11.5527 19.2402 11.5 19.3674 11.5 19.5V20.5C9.41565 20.385 7.44696 19.5052 5.97086 18.0291C4.49476 16.553 3.61499 14.5843 3.5 12.5H4.5C4.63261 12.5 4.75979 12.4473 4.85355 12.3536C4.94732 12.2598 5 12.1326 5 12C5 11.8674 4.94732 11.7402 4.85355 11.6464C4.75979 11.5527 4.63261 11.5 4.5 11.5H3.5C3.61499 9.41565 4.49476 7.44696 5.97086 5.97086C7.44696 4.49476 9.41565 3.61499 11.5 3.5V4.5C11.5 4.63261 11.5527 4.75979 11.6464 4.85355C11.7402 4.94732 11.8674 5 12 5C12.1326 5 12.2598 4.94732 12.3536 4.85355C12.4473 4.75979 12.5 4.63261 12.5 4.5V3.5C14.5843 3.61499 16.553 4.49476 18.0291 5.97086C19.5052 7.44696 20.385 9.41565 20.5 11.5H19.5C19.3674 11.5 19.2402 11.5527 19.1464 11.6464C19.0527 11.7402 19 11.8674 19 12C19 12.1326 19.0527 12.2598 19.1464 12.3536C19.2402 12.4473 19.3674 12.5 19.5 12.5H20.5C20.3779 14.579 19.495 16.5404 18.0196 18.0103C16.5442 19.4802 14.5795 20.3557 12.5 20.47V20.5ZM12 17.5C11.807 17.4979 11.6203 17.431 11.47 17.31L10.27 16.31C8.08 14.54 6.5 13.26 6.5 11.31C6.4906 10.8906 6.56561 10.4735 6.72058 10.0837C6.87555 9.69381 7.10731 9.33908 7.40209 9.04057C7.69688 8.74205 8.04866 8.50585 8.43654 8.34599C8.82443 8.18613 9.24049 8.10587 9.66 8.11C10.2986 8.10781 10.9204 8.31506 11.43 8.7C11.6407 8.85297 11.8321 9.03094 12 9.23C12.1679 9.03094 12.3593 8.85297 12.57 8.7C13.0796 8.31506 13.7014 8.10781 14.34 8.11C14.763 8.10568 15.1824 8.18715 15.5731 8.34947C15.9637 8.51179 16.3173 8.75161 16.6127 9.05443C16.908 9.35725 17.1389 9.71679 17.2914 10.1113C17.4439 10.5059 17.5149 10.9273 17.5 11.35C17.5 13.27 15.92 14.55 13.74 16.35C13.37 16.65 12.95 16.98 12.52 17.35C12.369 17.4581 12.1854 17.5111 12 17.5ZM9.66 9.11C9.36949 9.1098 9.08192 9.16821 8.8145 9.28173C8.54708 9.39524 8.30531 9.56154 8.10365 9.77067C7.902 9.97979 7.7446 10.2274 7.64088 10.4988C7.53715 10.7702 7.48924 11.0597 7.5 11.35C7.5 12.8 8.85 13.89 10.9 15.55C11.23 15.82 11.61 16.12 12 16.45C12.39 16.12 12.77 15.82 13.1 15.55C15.15 13.89 16.5 12.8 16.5 11.35C16.5108 11.0597 16.4628 10.7702 16.3591 10.4988C16.2554 10.2274 16.098 9.97979 15.8963 9.77067C15.6947 9.56154 15.4529 9.39524 15.1855 9.28173C14.9181 9.16821 14.6305 9.1098 14.34 9.11C13.9145 9.10709 13.4999 9.24412 13.16 9.5C12.8637 9.72912 12.6156 10.0146 12.43 10.34C12.3839 10.4123 12.3204 10.4718 12.2452 10.513C12.17 10.5542 12.0857 10.5758 12 10.5758C11.9143 10.5758 11.83 10.5542 11.7548 10.513C11.6796 10.4718 11.6161 10.4123 11.57 10.34C11.3844 10.0146 11.1363 9.72912 10.84 9.5C10.5001 9.24412 10.0855 9.10709 9.66 9.11Z"
        fill="#A0A8B4"></path>
</svg>