<svg class="bar-icon js-bar-icon" width="24" height="24" viewBox="0 0 24 24" fill="none"
    xmlns="http://www.w3.org/2000/svg">
    <path
        d="M20.5 21C20.3674 21 20.2402 20.9473 20.1464 20.8536C20.0527 20.7598 20 20.6326 20 20.5V17.5C20 17.1022 19.842 16.7207 19.5607 16.4394C19.2794 16.1581 18.8978 16 18.5 16H5.5C5.10218 16 4.72064 16.1581 4.43934 16.4394C4.15804 16.7207 4 17.1022 4 17.5V20.5C4 20.6326 3.94732 20.7598 3.85355 20.8536C3.75979 20.9473 3.63261 21 3.5 21C3.36739 21 3.24021 20.9473 3.14645 20.8536C3.05268 20.7598 3 20.6326 3 20.5V17.5C3 16.837 3.26339 16.2011 3.73223 15.7323C4.20107 15.2634 4.83696 15 5.5 15H18.5C19.163 15 19.7989 15.2634 20.2678 15.7323C20.7366 16.2011 21 16.837 21 17.5V20.5C21 20.6326 20.9473 20.7598 20.8536 20.8536C20.7598 20.9473 20.6326 21 20.5 21ZM23 22.5C23 22.3674 22.9473 22.2402 22.8536 22.1465C22.7598 22.0527 22.6326 22 22.5 22H1.5C1.36739 22 1.24021 22.0527 1.14645 22.1465C1.05268 22.2402 1 22.3674 1 22.5C1 22.6326 1.05268 22.7598 1.14645 22.8536C1.24021 22.9473 1.36739 23 1.5 23H22.5C22.6326 23 22.7598 22.9473 22.8536 22.8536C22.9473 22.7598 23 22.6326 23 22.5ZM23 22.5C23 22.3674 22.9473 22.2402 22.8536 22.1465C22.7598 22.0527 22.6326 22 22.5 22H1.5C1.36739 22 1.24021 22.0527 1.14645 22.1465C1.05268 22.2402 1 22.3674 1 22.5C1 22.6326 1.05268 22.7598 1.14645 22.8536C1.24021 22.9473 1.36739 23 1.5 23H22.5C22.6326 23 22.7598 22.9473 22.8536 22.8536C22.9473 22.7598 23 22.6326 23 22.5ZM17.8 18.82C18.06 18.5 18.21 18.35 18.5 18.35C18.6326 18.35 18.7598 18.2973 18.8536 18.2036C18.9473 18.1098 19 17.9826 19 17.85C19 17.7174 18.9473 17.5902 18.8536 17.4965C18.7598 17.4027 18.6326 17.35 18.5 17.35C18.2062 17.3594 17.919 17.4397 17.6629 17.5843C17.4069 17.7288 17.1898 17.9332 17.03 18.18C16.77 18.5 16.62 18.65 16.33 18.65C16.04 18.65 15.89 18.5 15.63 18.18C15.4766 17.9275 15.2608 17.7188 15.0033 17.574C14.7459 17.4291 14.4554 17.3531 14.16 17.3531C13.8646 17.3531 13.5741 17.4291 13.3167 17.574C13.0592 17.7188 12.8434 17.9275 12.69 18.18C12.43 18.5 12.29 18.65 11.99 18.65C11.69 18.65 11.56 18.5 11.29 18.18C11.1312 17.9346 10.9156 17.731 10.6615 17.5866C10.4073 17.4421 10.1221 17.3609 9.83 17.35C9.53616 17.3594 9.24895 17.4397 8.99295 17.5843C8.73695 17.7288 8.51977 17.9332 8.36 18.18C8.1 18.5 7.96 18.65 7.66 18.65C7.36 18.65 7.23 18.5 6.97 18.18C6.809 17.9344 6.59154 17.7309 6.3358 17.5865C6.08007 17.4421 5.79348 17.361 5.5 17.35C5.36739 17.35 5.24021 17.4027 5.14645 17.4965C5.05268 17.5902 5 17.7174 5 17.85C5 17.9826 5.05268 18.1098 5.14645 18.2036C5.24021 18.2973 5.36739 18.35 5.5 18.35C5.79 18.35 5.93 18.5 6.2 18.82C6.35881 19.0655 6.57441 19.269 6.82854 19.4135C7.08268 19.558 7.36787 19.6391 7.66 19.65C7.95384 19.6407 8.24105 19.5603 8.49705 19.4158C8.75305 19.2712 8.97023 19.0668 9.13 18.82C9.39 18.5 9.53 18.35 9.83 18.35C10.13 18.35 10.26 18.5 10.53 18.82C10.6888 19.0655 10.9044 19.269 11.1585 19.4135C11.4127 19.558 11.6979 19.6391 11.99 19.65C12.2838 19.6407 12.571 19.5603 12.8271 19.4158C13.0831 19.2712 13.3002 19.0668 13.46 18.82C13.73 18.5 13.87 18.35 14.16 18.35C14.45 18.35 14.6 18.5 14.86 18.82C15.0134 19.0725 15.2292 19.2812 15.4867 19.4261C15.7441 19.5709 16.0346 19.647 16.33 19.647C16.6254 19.647 16.9159 19.5709 17.1733 19.4261C17.4308 19.2812 17.6466 19.0725 17.8 18.82ZM16.5 8.00002H12.5V6.50002C12.5 6.36742 12.4473 6.24024 12.3536 6.14647C12.2598 6.0527 12.1326 6.00002 12 6.00002C11.8674 6.00002 11.7402 6.0527 11.6464 6.14647C11.5527 6.24024 11.5 6.36742 11.5 6.50002V8.00002H7.5C6.83696 8.00002 6.20107 8.26342 5.73223 8.73226C5.26339 9.2011 5 9.83698 5 10.5V13.5C5 13.6326 5.05268 13.7598 5.14645 13.8536C5.24021 13.9473 5.36739 14 5.5 14C5.63261 14 5.75979 13.9473 5.85355 13.8536C5.94732 13.7598 6 13.6326 6 13.5V10.5C6 10.1022 6.15804 9.72067 6.43934 9.43936C6.72064 9.15806 7.10218 9.00002 7.5 9.00002H16.5C16.8978 9.00002 17.2794 9.15806 17.5607 9.43936C17.842 9.72067 18 10.1022 18 10.5V13.5C18 13.6326 18.0527 13.7598 18.1464 13.8536C18.2402 13.9473 18.3674 14 18.5 14C18.6326 14 18.7598 13.9473 18.8536 13.8536C18.9473 13.7598 19 13.6326 19 13.5V10.5C19 9.83698 18.7366 9.2011 18.2678 8.73226C17.7989 8.26342 17.163 8.00002 16.5 8.00002ZM15.72 11.86C15.8111 11.7385 15.9287 11.6393 16.0638 11.57C16.199 11.5007 16.3481 11.4631 16.5 11.46C16.6326 11.46 16.7598 11.4073 16.8536 11.3136C16.9473 11.2198 17 11.0926 17 10.96C17 10.8274 16.9473 10.7002 16.8536 10.6065C16.7598 10.5127 16.6326 10.46 16.5 10.46C16.2211 10.4646 15.9462 10.5275 15.6931 10.6446C15.4399 10.7617 15.2141 10.9304 15.03 11.14C14.9363 11.2568 14.8176 11.3511 14.6826 11.4158C14.5476 11.4806 14.3997 11.5142 14.25 11.5142C14.1003 11.5142 13.9524 11.4806 13.8174 11.4158C13.6824 11.3511 13.5637 11.2568 13.47 11.14C13.2859 10.9304 13.0601 10.7617 12.8069 10.6446C12.5538 10.5275 12.2789 10.4646 12 10.46C11.7203 10.4601 11.444 10.5209 11.1902 10.6384C10.9364 10.7558 10.7111 10.9269 10.53 11.14C10.4363 11.2568 10.3176 11.3511 10.1826 11.4158C10.0476 11.4806 9.89974 11.5142 9.75 11.5142C9.60026 11.5142 9.45244 11.4806 9.31744 11.4158C9.18244 11.3511 9.0637 11.2568 8.97 11.14C8.78594 10.9304 8.56008 10.7617 8.30692 10.6446C8.05375 10.5275 7.7789 10.4646 7.5 10.46C7.36739 10.46 7.24021 10.5127 7.14645 10.6065C7.05268 10.7002 7 10.8274 7 10.96C7 11.0926 7.05268 11.2198 7.14645 11.3136C7.24021 11.4073 7.36739 11.46 7.5 11.46C7.65185 11.4631 7.80101 11.5007 7.93616 11.57C8.07131 11.6393 8.1889 11.7385 8.28 11.86C8.46118 12.073 8.68648 12.2441 8.9403 12.3614C9.19411 12.4787 9.47039 12.5394 9.75 12.5394C10.0296 12.5394 10.3059 12.4787 10.5597 12.3614C10.8135 12.2441 11.0388 12.073 11.22 11.86C11.3137 11.7432 11.4324 11.649 11.5674 11.5842C11.7024 11.5194 11.8503 11.4858 12 11.4858C12.1497 11.4858 12.2976 11.5194 12.4326 11.5842C12.5676 11.649 12.6863 11.7432 12.78 11.86C12.9612 12.073 13.1865 12.2441 13.4403 12.3614C13.6941 12.4787 13.9704 12.5394 14.25 12.5394C14.5296 12.5394 14.8059 12.4787 15.0597 12.3614C15.3135 12.2441 15.5388 12.073 15.72 11.86ZM13.43 5.00002C13.056 5.37663 12.5478 5.58926 12.0171 5.59114C11.4863 5.59301 10.9766 5.38398 10.6 5.01002C10.2234 4.63607 10.0108 4.12782 10.0089 3.5971C10.007 3.06637 10.216 2.55663 10.59 2.18002L11.66 1.12002C11.7049 1.07219 11.7591 1.03407 11.8193 1.00801C11.8795 0.981951 11.9444 0.968506 12.01 0.968506C12.0756 0.968506 12.1405 0.981951 12.2007 1.00801C12.2609 1.03407 12.3151 1.07219 12.36 1.12002L13.43 2.18002C13.8025 2.55475 14.0116 3.06165 14.0116 3.59002C14.0116 4.1184 13.8025 4.6253 13.43 5.00002ZM12.71 2.90002L12 2.21002L11.29 2.92002C11.1068 3.10695 11.0041 3.35827 11.0041 3.62002C11.0041 3.88178 11.1068 4.1331 11.29 4.32002C11.4774 4.50628 11.7308 4.61082 11.995 4.61082C12.2592 4.61082 12.5126 4.50628 12.7 4.32002C12.8846 4.13441 12.989 3.88382 12.9909 3.62207C12.9927 3.36031 12.8919 3.10826 12.71 2.92002V2.90002Z"
        fill="#A0A8B4"></path>
</svg>