<svg class="bar-icon js-bar-icon" width="24" height="24" viewBox="0 0 24 24" fill="none"
    xmlns="http://www.w3.org/2000/svg">
    <path
        d="M20.5 4H3.5C2.83696 4 2.20107 4.26339 1.73223 4.73223C1.26339 5.20107 1 5.83696 1 6.5V17.5C1 18.163 1.26339 18.7989 1.73223 19.2678C2.20107 19.7366 2.83696 20 3.5 20H20.5C21.163 20 21.7989 19.7366 22.2678 19.2678C22.7366 18.7989 23 18.163 23 17.5V6.5C23 5.83696 22.7366 5.20107 22.2678 4.73223C21.7989 4.26339 21.163 4 20.5 4ZM22 17.5C22 17.5 22 17.5 22 17.56L15.63 13L22 8.47V17.5ZM3.5 5H20.5C20.8978 5 21.2794 5.15804 21.5607 5.43934C21.842 5.72064 22 6.10218 22 6.5V7.24L12.87 13.76C12.6177 13.9452 12.313 14.0451 12 14.0451C11.687 14.0451 11.3823 13.9452 11.13 13.76L2 7.24V6.5C2 6.10218 2.15804 5.72064 2.43934 5.43934C2.72064 5.15804 3.10218 5 3.5 5ZM2 17.5V8.5L8.37 13L2 17.56C2 17.56 2 17.52 2 17.5ZM20.5 19H3.5C3.29245 19.0006 3.08712 18.9573 2.89752 18.8728C2.70793 18.7883 2.53837 18.6647 2.4 18.51L9.23 13.64L10.55 14.58C10.9745 14.8787 11.4809 15.039 12 15.039C12.5191 15.039 13.0255 14.8787 13.45 14.58L14.77 13.64L21.6 18.51C21.4616 18.6647 21.2921 18.7883 21.1025 18.8728C20.9129 18.9573 20.7076 19.0006 20.5 19Z"
        fill="#A0A8B4"></path>
</svg>