<svg class="reg-gender__icon" width="24" height="24" viewBox="0 0 24 24" fill="none"
    xmlns="http://www.w3.org/2000/svg">
    <path
        d="M12.0003 5.16505C13.2078 5.16505 14.1868 4.23254 14.1868 3.08257C14.1868 1.9322 13.2078 1 12.0003 1C10.7925 1 9.81299 1.9322 9.81299 3.08253C9.81294 4.23254 10.7924 5.16505 12.0003 5.16505Z"
        fill="white"></path>
    <path
        d="M17.9082 12.4266L15.4357 7.03756C15.1865 6.49417 14.662 6.1336 14.0605 6.03654C13.9695 6.01373 10.0307 6.01337 9.93664 6.03732C9.33595 6.13466 8.81256 6.49523 8.56384 7.03793L6.09158 12.4262C5.94339 12.7498 5.97658 13.1224 6.17997 13.4177C6.38337 13.7131 6.72963 13.8909 7.10105 13.8909C7.53913 13.8909 7.93523 13.6444 8.11051 13.2628L9.04223 11.2323V21.8582C9.04223 22.4889 9.58008 23 10.2437 23C10.9076 23 11.4454 22.4889 11.4454 21.8582V14.6906H12.5548V21.8582C12.5548 22.4889 13.0926 23 13.7562 23C14.4193 23 14.9572 22.4889 14.9572 21.8586V11.2315L15.8894 13.2632C16.0646 13.6448 16.4607 13.8913 16.8988 13.8913C17.2702 13.8913 17.6165 13.7135 17.8199 13.4182C18.0233 13.1231 18.0568 12.7502 17.9082 12.4266Z"
        fill="white"></path>
</svg>