<svg class="bar-icon js-bar-icon" width="24" height="24" viewBox="0 0 24 24" fill="none"
    xmlns="http://www.w3.org/2000/svg">
    <path
        d="M12 22.17C11.3367 22.1701 10.7004 21.9076 10.23 21.44L5.64 16.85C4.38021 15.5917 3.52193 13.9881 3.17376 12.242C2.82558 10.4959 3.00316 8.68568 3.68402 7.04049C4.36488 5.3953 5.51842 3.98904 6.99871 2.99961C8.47899 2.01018 10.2195 1.48206 12 1.48206C13.7805 1.48206 15.521 2.01018 17.0013 2.99961C18.4816 3.98904 19.6351 5.3953 20.316 7.04049C20.9968 8.68568 21.1744 10.4959 20.8263 12.242C20.4781 13.9881 19.6198 15.5917 18.36 16.85L13.77 21.44C13.5377 21.6724 13.2618 21.8566 12.958 21.9819C12.6542 22.1072 12.3286 22.1711 12 22.17ZM12 2.51998C10.9525 2.51553 9.91446 2.71922 8.94627 3.1192C7.97808 3.51917 7.09898 4.10748 6.36 4.84998C4.86695 6.34929 4.02869 8.37905 4.02869 10.495C4.02869 12.6109 4.86695 14.6407 6.36 16.14L10.95 20.73C11.235 21.0038 11.6148 21.1567 12.01 21.1567C12.4052 21.1567 12.785 21.0038 13.07 20.73L17.66 16.14C18.7664 15.0191 19.5174 13.5966 19.8188 12.0507C20.1202 10.5048 19.9585 8.90432 19.3541 7.44992C18.7497 5.99551 17.7294 4.75187 16.4212 3.87487C15.113 2.99788 13.575 2.52655 12 2.51998Z"
        fill="#A0A8B4"></path>
    <path
        d="M12 15C11.11 15 10.24 14.7361 9.49994 14.2416C8.75991 13.7471 8.18314 13.0443 7.84254 12.2221C7.50195 11.3998 7.41283 10.495 7.58647 9.6221C7.7601 8.74918 8.18869 7.94736 8.81802 7.31802C9.44736 6.68868 10.2492 6.2601 11.1221 6.08647C11.995 5.91283 12.8998 6.00195 13.7221 6.34254C14.5443 6.68314 15.2471 7.25991 15.7416 7.99994C16.2361 8.73996 16.5 9.60999 16.5 10.5C16.4974 11.6927 16.0224 12.8357 15.1791 13.6791C14.3357 14.5224 13.1927 14.9974 12 15ZM12 7C11.3078 7 10.6311 7.20527 10.0555 7.58986C9.47993 7.97444 9.03133 8.52107 8.76642 9.16061C8.50152 9.80015 8.4322 10.5039 8.56725 11.1828C8.7023 11.8618 9.03564 12.4854 9.52513 12.9749C10.0146 13.4644 10.6383 13.7977 11.3172 13.9328C11.9961 14.0678 12.6999 13.9985 13.3394 13.7336C13.9789 13.4687 14.5256 13.0201 14.9101 12.4445C15.2947 11.8689 15.5 11.1922 15.5 10.5C15.5 9.57174 15.1313 8.68151 14.4749 8.02513C13.8185 7.36875 12.9283 7 12 7Z"
        fill="#A0A8B4"></path>
</svg>