<svg class="bar-icon js-bar-icon" width="24" height="24" viewBox="0 0 24 24" fill="none"
    xmlns="http://www.w3.org/2000/svg">
    <path
        d="M11.9999 15C11.1099 15 10.2399 14.7361 9.49984 14.2416C8.75982 13.7472 8.18305 13.0444 7.84245 12.2221C7.50186 11.3998 7.41274 10.495 7.58638 9.62213C7.76001 8.74922 8.18859 7.94739 8.81793 7.31806C9.44727 6.68872 10.2491 6.26014 11.122 6.0865C11.9949 5.91287 12.8997 6.00198 13.722 6.34258C14.5443 6.68317 15.2471 7.25995 15.7415 7.99997C16.236 8.73999 16.4999 9.61002 16.4999 10.5C16.4973 11.6927 16.0223 12.8358 15.179 13.6791C14.3356 14.5224 13.1926 14.9974 11.9999 15ZM11.9999 7.00004C11.3077 7.00004 10.631 7.20531 10.0554 7.58989C9.47984 7.97448 9.03124 8.5211 8.76633 9.16064C8.50143 9.80019 8.43211 10.5039 8.56716 11.1829C8.70221 11.8618 9.03555 12.4854 9.52504 12.9749C10.0145 13.4644 10.6382 13.7977 11.3171 13.9328C11.996 14.0678 12.6998 13.9985 13.3393 13.7336C13.9788 13.4687 14.5255 13.0201 14.9101 12.4445C15.2946 11.869 15.4999 11.1923 15.4999 10.5C15.4999 9.57178 15.1312 8.68154 14.4748 8.02516C13.8184 7.36879 12.9282 7.00004 11.9999 7.00004ZM22.9999 12C23.0077 10.1054 22.5259 8.24084 21.6013 6.58709C20.6767 4.93333 19.3406 3.54643 17.7225 2.56077C16.1044 1.57511 14.2591 1.02411 12.3655 0.961153C10.4719 0.898198 8.59409 1.32542 6.91409 2.20144C5.2341 3.07745 3.80885 4.37255 2.77645 5.96124C1.74406 7.54993 1.13951 9.37835 1.0214 11.2693C0.903284 13.1603 1.27561 15.0498 2.10229 16.7546C2.92897 18.4594 4.18198 19.9218 5.73991 21L6.06991 21.21L6.54991 21.5L6.91991 21.7L7.43991 21.95L7.78991 22.11C8.05991 22.22 8.31991 22.31 8.58991 22.4L8.76991 22.46L9.61991 22.68L9.92991 22.74C10.1699 22.74 10.3999 22.82 10.6399 22.84H10.9399C11.2799 22.84 11.6099 22.89 11.9399 22.89C12.2699 22.89 12.6099 22.89 12.9399 22.84H13.2399C13.4799 22.84 13.7099 22.78 13.9499 22.74L14.2599 22.68L15.1099 22.46L15.2899 22.4C15.5599 22.31 15.8199 22.22 16.0899 22.11L16.4399 21.95L16.9599 21.7L17.3299 21.5L17.8099 21.21L18.1399 21C19.6183 20.0056 20.833 18.667 21.6796 17.0993C22.5262 15.5315 22.9793 13.7816 22.9999 12ZM18.7899 19.32C18.3529 17.52 17.2201 15.9665 15.6399 15C15.5259 14.9311 15.3891 14.9103 15.2597 14.9421C15.1303 14.974 15.0189 15.056 14.9499 15.17C14.881 15.2841 14.8601 15.4208 14.892 15.5502C14.9239 15.6796 15.0059 15.7911 15.1199 15.86C15.8063 16.2783 16.4016 16.8302 16.8706 17.483C17.3396 18.1357 17.6726 18.8761 17.8499 19.66C17.8768 19.7568 17.875 19.8594 17.8448 19.9552C17.8147 20.051 17.7574 20.1361 17.6799 20.2C17.2738 20.4721 16.8494 20.716 16.4099 20.93H16.3499C14.9954 21.5674 13.5169 21.8979 12.0199 21.8979C10.5229 21.8979 9.04442 21.5674 7.68991 20.93H7.62991C7.19038 20.716 6.76605 20.4721 6.35991 20.2C6.28244 20.1361 6.22515 20.051 6.19498 19.9552C6.16481 19.8594 6.16305 19.7568 6.18991 19.66C6.36723 18.8761 6.70026 18.1357 7.16923 17.483C7.63819 16.8302 8.23354 16.2783 8.91991 15.86C9.03395 15.7858 9.11383 15.6693 9.14196 15.5361C9.17009 15.403 9.14417 15.2641 9.06991 15.15C8.99565 15.036 8.87913 14.9561 8.74598 14.928C8.61283 14.8999 8.47395 14.9258 8.35991 15C6.78392 15.9619 5.65174 17.5074 5.20991 19.3C3.73353 17.9345 2.70316 16.1556 2.25331 14.1955C1.80346 12.2355 1.95504 10.1853 2.68826 8.31269C3.42147 6.44007 4.70226 4.83204 6.36341 3.69852C8.02455 2.565 9.98887 1.95865 11.9999 1.95865C14.0109 1.95865 15.9753 2.565 17.6364 3.69852C19.2976 4.83204 20.5783 6.44007 21.3116 8.31269C22.0448 10.1853 22.1964 12.2355 21.7465 14.1955C21.2967 16.1556 20.2663 17.9345 18.7899 19.3V19.32Z"
        fill="#A0A8B4"></path>
</svg>