<svg class="bar-icon js-bar-icon" width="24" height="24" viewBox="0 0 24 24" fill="none"
    xmlns="http://www.w3.org/2000/svg">
    <path
        d="M7.50001 19.5001C7.29264 19.5011 7.09129 19.4304 6.93001 19.3001C6.42 18.8701 5.93001 18.4701 5.49001 18.1201C2.78 15.9301 1.00001 14.4801 1.00001 12.2201C0.982383 11.7266 1.0651 11.2346 1.24314 10.7739C1.42119 10.3133 1.69086 9.89357 2.03583 9.54018C2.38081 9.1868 2.79391 8.90709 3.25012 8.718C3.70634 8.52891 4.19619 8.43436 4.69001 8.44009C5.43615 8.43205 6.16398 8.67114 6.76001 9.12009C7.03938 9.32012 7.28859 9.55923 7.50001 9.83009C7.71142 9.55923 7.96063 9.32012 8.24001 9.12009C8.83603 8.67114 9.56386 8.43205 10.31 8.44009C10.8038 8.43436 11.2937 8.52891 11.7499 8.718C12.2061 8.90709 12.6192 9.1868 12.9642 9.54018C13.3091 9.89357 13.5788 10.3133 13.7569 10.7739C13.9349 11.2346 14.0176 11.7266 14 12.2201C14 14.4801 12.22 15.9301 9.52001 18.1101C9.08001 18.4701 8.58 18.8701 8.07 19.3001C7.90872 19.4304 7.70737 19.5011 7.50001 19.5001ZM4.69001 9.44009C4.32865 9.43849 3.9707 9.50998 3.63768 9.65028C3.30466 9.79057 3.00346 9.99676 2.75217 10.2564C2.50089 10.5161 2.30472 10.824 2.17546 11.1614C2.0462 11.4989 1.98652 11.859 2.00001 12.2201C2.00001 14.0001 3.64001 15.3301 6.11001 17.3301L7.50001 18.4701L8.89001 17.3301C11.36 15.3301 13 14.0001 13 12.2201C13.0135 11.859 12.9538 11.4989 12.8246 11.1614C12.6953 10.824 12.4991 10.5161 12.2478 10.2564C11.9966 9.99676 11.6953 9.79057 11.3623 9.65028C11.0293 9.50998 10.6714 9.43849 10.31 9.44009C9.77785 9.43647 9.25875 9.60483 8.83001 9.92009C8.46884 10.1928 8.16332 10.5323 7.93001 10.9201C7.88392 10.9924 7.82036 11.0518 7.7452 11.0931C7.67005 11.1343 7.58572 11.1559 7.50001 11.1559C7.41429 11.1559 7.32996 11.1343 7.25481 11.0931C7.17965 11.0518 7.11609 10.9924 7.07001 10.9201C6.83669 10.5323 6.53117 10.1928 6.17001 9.92009C5.74126 9.60483 5.22217 9.43647 4.69001 9.44009ZM14.69 19.2601L16.69 17.5801C20.5 14.5201 23 12.5001 23 9.40009C23.0215 8.73014 22.908 8.06272 22.6663 7.4375C22.4247 6.81228 22.0598 6.24204 21.5933 5.76066C21.1269 5.27929 20.5684 4.89662 19.9511 4.6354C19.3338 4.37418 18.6703 4.23975 18 4.24009C16.987 4.23574 16.0004 4.5623 15.19 5.17009C14.7374 5.49881 14.3363 5.89314 14 6.34009C13.6698 5.8946 13.2755 5.50034 12.83 5.17009C12.0142 4.55814 11.0198 4.23137 10 4.24009C9.09025 4.22932 8.19552 4.47256 7.41645 4.94248C6.63737 5.4124 6.00485 6.09035 5.59001 6.90009C5.54913 7.01651 5.55184 7.1438 5.59765 7.25836C5.64345 7.37293 5.72923 7.46701 5.8391 7.52317C5.94897 7.57932 6.07546 7.59374 6.19515 7.56375C6.31484 7.53377 6.41959 7.46141 6.49001 7.36009C6.81682 6.71267 7.31943 6.17041 7.94022 5.79546C8.56101 5.42051 9.27487 5.22804 10 5.24009C10.8064 5.24294 11.5897 5.50989 12.23 6.00009C12.7737 6.40416 13.2296 6.91448 13.57 7.50009C13.6161 7.57236 13.6797 7.63184 13.7548 7.67305C13.83 7.71426 13.9143 7.73586 14 7.73586C14.0857 7.73586 14.17 7.71426 14.2452 7.67305C14.3204 7.63184 14.3839 7.57236 14.43 7.50009C14.7705 6.91448 15.2263 6.40416 15.77 6.00009C16.4103 5.50989 17.1936 5.24294 18 5.24009C18.539 5.23966 19.0726 5.34818 19.5686 5.55913C20.0647 5.77008 20.5129 6.0791 20.8865 6.46765C21.2601 6.8562 21.5514 7.31625 21.7427 7.82017C21.934 8.3241 22.0216 8.86149 22 9.40009C22 12.0201 19.65 13.9201 16.1 16.8001C15.47 17.3001 14.76 17.8801 13.97 18.5001L12.61 17.3701C12.5066 17.2852 12.3737 17.2449 12.2405 17.258C12.1074 17.2712 11.9849 17.3367 11.9 17.4401C11.8151 17.5435 11.7748 17.6764 11.788 17.8096C11.8011 17.9427 11.8666 18.0652 11.97 18.1501L13.34 19.2701C13.5284 19.4219 13.7631 19.5046 14.005 19.5046C14.2469 19.5046 14.4816 19.4219 14.67 19.2701L14.69 19.2601Z"
        fill="#A0A8B4"></path>
</svg>