<svg width="141" height="141" fill="none" viewBox="0 0 141 141">
    <path
        d="M51.9194 37H4.37326C1.96184 37 0 38.9616 0 41.3733V123.097C0 125.509 1.96157 127.47 4.37326 127.47H51.9196C54.3311 127.47 56.2929 125.509 56.2929 123.097C56.2929 112.863 56.2929 51.6176 56.2929 41.3733C56.2926 38.9616 54.3311 37 51.9194 37ZM4.37326 39.9154H51.9196C52.7239 39.9154 53.3775 40.5687 53.3775 41.3733V48.9767H2.91542V41.3733C2.91542 40.569 3.56873 39.9154 4.37326 39.9154ZM53.3772 112.578H47.4222V106.62C47.4222 98.8732 41.5353 92.49 34.0022 91.6734V91.3603C36.6387 89.911 38.7115 87.5509 39.6468 84.7739C41.4888 84.2713 42.8469 82.5829 42.8469 80.5828C42.8469 79.6967 42.5729 78.8818 42.12 78.196C41.6819 69.4538 39.2565 61.8867 28.1426 61.8867C17.2732 61.9073 14.7217 69.1546 14.2035 77.6468C13.4884 78.4216 13.0427 79.4479 13.0427 80.5825C13.0427 82.7866 14.6928 84.5699 16.7197 84.8847C17.6522 87.7063 19.7806 90.0151 22.2888 91.3797V91.6606C14.7557 92.4772 8.87013 98.8722 8.87013 106.62V112.577H2.91542V51.8921H53.3772V112.578ZM28.1456 101.066C31.3744 101.066 34.0022 98.4376 34.0022 95.2091V94.611C39.9238 95.4112 44.5068 100.483 44.5068 106.621V112.578H11.7858V106.621C11.7858 100.483 16.3688 95.4084 22.2891 94.6072V95.2091C22.2891 98.4376 24.9168 101.066 28.1456 101.066ZM17.3662 79.1536C18.0509 79.2647 18.69 78.8747 18.9364 78.234C19.5629 76.6038 22.346 73.2386 26.9569 73.2386C28.24 73.3452 29.9858 72.8585 31.101 74.0628C33.8247 77.0652 35.9006 75.7711 37.2351 78.1856C37.5178 78.7032 37.8665 79.1394 38.5846 79.1679C39.3405 79.1993 39.9315 79.8198 39.9315 80.5828C39.9315 81.3701 39.2907 82.0105 38.5037 82.0105C37.826 82.0105 37.2381 82.4773 37.0844 83.1367C34.9659 92.2127 21.2715 92.1668 19.2484 83.1039C19.072 82.31 18.2834 81.8235 17.5089 81.999C16.8518 82.1377 15.9586 81.5087 15.9586 80.5825C15.9584 79.7957 16.5633 79.1766 17.3662 79.1536ZM17.3506 75.196C18.1934 68.5593 20.8348 64.8158 28.1456 64.8024C35.6047 64.8024 38.2051 68.6977 38.9896 75.5904C37.0171 73.238 35.2 74.2427 33.2507 72.0928C31.0408 69.7111 28.0368 70.4558 26.9571 70.3232C22.3998 70.3232 19.095 72.8303 17.3506 75.196ZM31.0868 92.5053V95.2088C31.0868 96.8302 29.767 98.1499 28.1456 98.1499C26.5243 98.1499 25.2045 96.8302 25.2045 95.2088V92.5116C27.2541 93.0235 29.1487 92.9913 31.0868 92.5053ZM51.9194 124.555H4.37326C3.569 124.555 2.91542 123.901 2.91542 123.097V115.493H53.3772V123.097C53.3772 123.901 52.7239 124.555 51.9194 124.555Z"
        fill="#ACB8CC"></path>
    <path
        d="M36.4578 44.9157H38.2017C39.0074 44.9157 39.6596 44.2637 39.6596 43.4578C39.6596 42.6522 39.0076 42 38.2017 42H36.4578C35.6522 42 35 42.6519 35 43.4578C35 44.2637 35.6522 44.9157 36.4578 44.9157Z"
        fill="#ACB8CC"></path>
    <path
        d="M18.4578 44.9157H30.2934C31.0991 44.9157 31.7513 44.2637 31.7513 43.4578C31.7513 42.6522 31.0993 42 30.2934 42H18.4578C17.6522 42 17 42.6519 17 43.4578C17 44.2637 17.6519 44.9157 18.4578 44.9157Z"
        fill="#ACB8CC"></path>
    <path
        d="M30.4439 118H26.4578C25.6522 118 25 118.652 25 119.458C25 120.264 25.6519 120.916 26.4578 120.916H30.4439C31.2495 120.916 31.9017 120.264 31.9017 119.458C31.9017 118.652 31.2495 118 30.4439 118Z"
        fill="#ACB8CC"></path>
    <path
        d="M135.919 37H88.3733C85.9618 37 84 38.9616 84 41.3733V123.097C84 125.509 85.9616 127.47 88.3733 127.47H135.92C138.331 127.47 140.293 125.509 140.293 123.097C140.293 100.989 140.293 67.2029 140.293 41.3733C140.293 38.9616 138.331 37 135.919 37ZM137.377 123.097C137.377 123.901 136.724 124.555 135.919 124.555H88.3733C87.569 124.555 86.9154 123.901 86.9154 123.097V115.493H137.377V123.097ZM100.563 74.1741C99.3953 69.1779 104.478 65.7005 109.619 64.8623C109.622 64.861 109.625 64.861 109.629 64.861C112.68 64.3416 114.739 67.4077 113.493 71.053C111.298 77.6266 99.6485 80.9643 98.2101 78.9617C97.6897 78.2433 97.489 76.772 98.7297 76.7266C99.9305 76.6328 100.882 75.498 100.563 74.1741ZM115.729 64.888C119.081 64.2924 122.347 66.758 122.551 70.3204L122.958 76.6867C120.277 75.1449 117.081 72.5839 116.384 71.606C116.384 71.6043 116.384 71.603 116.385 71.6016C117.011 69.4396 116.929 66.7799 115.729 64.888ZM122.347 79.6749C123.019 80.0203 123.771 80.0498 124.536 79.6779C125.39 80.1657 125.136 81.3337 124.273 81.5538C123.652 81.7133 123.208 82.2599 123.18 82.9007C122.662 94.5287 106.593 96.9202 102.494 86.273C102.269 85.6933 101.693 85.2951 101.016 85.3435C99.8528 85.454 99.4508 83.7684 100.585 83.359C101.076 83.1807 101.42 82.7604 101.517 82.2717C106.449 81.7393 112.318 78.698 115.083 74.4276C117.312 76.658 121.08 79.0161 122.347 79.6749ZM123.819 97.0142C122.054 95.9037 120.039 95.1601 117.871 94.9036C120.21 93.8902 122.171 92.2767 123.592 90.2651L123.819 97.0142ZM114.412 95.8974V97.3301C114.412 98.5801 113.395 99.5966 112.146 99.5966C110.896 99.5966 109.879 98.5801 109.879 97.3301V95.7664C111.575 96.1019 112.823 96.1246 114.412 95.8974ZM106.964 94.8388V94.8456C104.821 95.0177 102.809 95.6524 101.031 96.6623L101.252 90.1084C102.699 92.2237 104.699 93.8273 106.964 94.8388ZM107.007 97.7605C107.23 100.414 109.436 102.512 112.146 102.512C114.85 102.512 117.052 100.422 117.282 97.7764C123.093 98.34 127.657 103.226 127.657 109.182V112.578H122.791V109.182C122.791 108.376 122.139 107.724 121.334 107.724C120.528 107.724 119.876 108.376 119.876 109.182V112.578H104.416V109.182C104.416 108.376 103.764 107.724 102.958 107.724C102.152 107.724 101.5 108.376 101.5 109.182V112.578H96.6355V109.182C96.6357 103.225 101.196 98.3241 107.007 97.7605ZM137.377 112.578H130.573V109.181C130.573 105.46 129.143 102.077 126.817 99.5227L126.278 83.7823C128.665 82.1243 128.552 78.5846 125.908 77.1327L125.46 70.1451C125.046 62.8387 116.489 60.2282 113.553 62.8373C112.268 62.0664 110.725 61.7169 109.143 61.9852C102.606 63.0533 96.7162 67.539 97.5724 73.966C94.7281 74.7623 94.151 78.322 95.8471 80.6684C96.3049 81.3034 96.9702 81.73 97.7624 82.0015C96.5611 83.6489 96.7605 85.9744 98.4286 87.3505L98.0397 98.9206C95.3786 101.534 93.7206 105.165 93.7206 109.182V112.578H86.916V51.8921H137.377V112.578ZM137.377 48.9767H86.9154V41.3733C86.9154 40.569 87.5687 39.9154 88.3733 39.9154H135.92C136.724 39.9154 137.377 40.5687 137.377 41.3733V48.9767H137.377Z"
        fill="#ACB8CC"></path>
    <path
        d="M121.203 42H119.458C118.652 42 118 42.6519 118 43.4578C118 44.2635 118.652 44.9157 119.458 44.9157H121.203C122.009 44.9157 122.661 44.2638 122.661 43.4578C122.661 42.6519 122.009 42 121.203 42Z"
        fill="#ACB8CC"></path>
    <path
        d="M113.293 42H101.458C100.652 42 100 42.6519 100 43.4578C100 44.2635 100.652 44.9157 101.458 44.9157H113.293C114.099 44.9157 114.751 44.2638 114.751 43.4578C114.751 42.6519 114.099 42 113.293 42Z"
        fill="#ACB8CC"></path>
    <path
        d="M113.445 118H109.458C108.652 118 108 118.652 108 119.458C108 120.264 108.652 120.916 109.458 120.916H113.445C114.251 120.916 114.903 120.264 114.903 119.458C114.903 118.652 114.251 118 113.445 118Z"
        fill="#ACB8CC"></path>
    <path
        d="M70.7204 40.5135C70.2703 40.5135 69.8201 40.3273 69.52 40.0293C67.1193 37.6828 64.7185 35.5969 62.3927 33.5856C55.2654 27.3653 49.0759 22.0017 49.0009 13.8446C48.9633 10.7531 50.1637 7.8478 52.3019 5.65022C54.4776 3.45264 57.3661 2.22348 60.4796 2.18624H60.6296C65.3562 2.18624 68.1696 4.27208 70.3828 7.66156C72.5585 4.23483 75.372 2.03725 80.1735 2H80.286C86.6256 2 91.8398 7.10286 91.8773 13.3976C91.9524 21.5547 85.9129 27.0301 78.8981 33.3993C76.6099 35.4479 74.2841 37.571 71.9208 39.9921C71.6207 40.3273 71.1706 40.5135 70.7204 40.5135ZM60.6296 5.65022H60.5171C58.3414 5.68747 56.3157 6.54415 54.7777 8.07128C53.2397 9.59842 52.4145 11.647 52.452 13.8073C52.527 20.4373 57.8913 25.0932 64.681 31.0155C66.6316 32.7289 68.6573 34.4795 70.6829 36.3791C72.7086 34.405 74.6592 32.6171 76.6099 30.8665C83.287 24.8325 88.5387 20.0649 88.4637 13.4349C88.4262 9.03971 84.75 5.42674 80.3236 5.42674H80.2485C76.3848 5.46398 74.3966 7.02836 71.9959 11.9077C71.6958 12.5037 71.0956 12.8762 70.4579 12.8762C69.8201 12.8762 69.2199 12.5037 68.9198 11.945C66.444 7.25185 64.3809 5.65022 60.6296 5.65022Z"
        fill="#FF9C9C"></path>
    <path
        d="M78.9097 73.4613C78.9097 74.8257 77.8157 75.9226 76.4549 75.9226C75.094 75.9226 74 74.8257 74 73.4613C74 72.0969 75.094 71 76.4549 71C77.8157 71 78.9097 72.0969 78.9097 73.4613Z"
        fill="#ACB8CC"></path>
    <path
        d="M104.62 2.31593C104.62 3.59976 103.59 4.63186 102.31 4.63186C101.029 4.63186 100 3.59976 100 2.31593C100 1.0321 101.029 0 102.31 0C103.59 0 104.62 1.0321 104.62 2.31593Z"
        fill="#ACB8CC"></path>
    <path
        d="M113.804 27.5408C113.6 27.6584 113.348 27.6909 113.106 27.626L108.765 26.4567C108.283 26.3268 107.998 25.8333 108.127 25.3506L109.066 21.8815L105.609 20.9505C105.127 20.8205 104.842 20.327 104.97 19.8444L106.128 15.5002C106.257 15.0175 106.749 14.7333 107.231 14.8633C107.714 14.9932 107.999 15.4867 107.87 15.9694L106.948 19.4286L110.405 20.3597C110.887 20.4896 111.172 20.9831 111.043 21.4658L110.121 24.925L113.578 25.8561C114.061 25.986 114.345 26.4795 114.217 26.9622C114.162 27.2206 114.008 27.4232 113.804 27.5408Z"
        fill="#ACB8CC"></path>
    <path
        d="M62.4619 93.2163C62.5326 92.9523 62.7136 92.7179 62.9652 92.5731L67.4928 89.967C67.9959 89.6774 68.6354 89.8488 68.9263 90.3511L71.0051 93.973L74.6105 91.8977C75.1135 91.6082 75.7531 91.7795 76.044 92.2818L78.662 96.8027C78.9529 97.305 78.7819 97.9429 78.2789 98.2325C77.7758 98.522 77.1362 98.3506 76.8453 97.8483L74.7606 94.2484L71.1553 96.3237C70.6522 96.6133 70.0126 96.4419 69.7218 95.9396L67.6371 92.3397L64.0317 94.4149C63.5287 94.7045 62.8891 94.5331 62.5982 94.0308C62.4307 93.7738 62.3912 93.4803 62.4619 93.2163Z"
        fill="#ACB8CC"></path>
    <path
        d="M57.6697 139.996C57.4331 139.86 57.2535 139.624 57.1787 139.344L55.8332 134.296C55.6837 133.735 56.0148 133.162 56.5753 133.011L60.6118 131.94L59.5404 127.921C59.3909 127.36 59.7219 126.786 60.2824 126.635L65.3268 125.277C65.8873 125.126 66.4592 125.456 66.6087 126.017C66.7582 126.578 66.4271 127.151 65.8666 127.302L61.8498 128.384L62.9213 132.404C63.0708 132.964 62.7397 133.538 62.1792 133.689L58.1624 134.771L59.2338 138.79C59.3833 139.351 59.0523 139.925 58.4918 140.076C58.2001 140.171 57.9064 140.133 57.6697 139.996Z"
        fill="#ACB8CC"></path>
    <path
        d="M24.3036 26.6298C21.9308 26.6298 20 24.6939 20 22.3149C20 19.9359 21.9308 18 24.3036 18C26.6764 18 28.6073 19.9359 28.6073 22.3149C28.6073 24.6939 26.6764 26.6298 24.3036 26.6298ZM24.3036 20.1691C23.1172 20.1691 22.1634 21.1254 22.1634 22.3149C22.1634 23.5044 23.1172 24.4607 24.3036 24.4607C25.49 24.4607 26.4671 23.5044 26.4671 22.3149C26.4671 21.1254 25.49 20.1691 24.3036 20.1691Z"
        fill="#ACB8CC"></path>
    <path
        d="M79.3885 132.795C77.5202 132.795 76 131.27 76 129.397C76 127.524 77.5202 126 79.3885 126C81.2567 126 82.7769 127.524 82.7769 129.397C82.7769 131.27 81.2567 132.795 79.3885 132.795ZM79.3885 127.708C78.4543 127.708 77.7034 128.461 77.7034 129.397C77.7034 130.334 78.4543 131.087 79.3885 131.087C80.3226 131.087 81.0918 130.334 81.0918 129.397C81.0918 128.461 80.3226 127.708 79.3885 127.708Z"
        fill="#ACB8CC"></path>
    <path
        d="M62.3702 55.758C60.512 55.758 59 54.242 59 52.379C59 50.516 60.512 49 62.3702 49C64.2284 49 65.7404 50.516 65.7404 52.379C65.7404 54.242 64.2284 55.758 62.3702 55.758ZM62.3702 50.6986C61.4411 50.6986 60.6942 51.4475 60.6942 52.379C60.6942 53.3105 61.4411 54.0594 62.3702 54.0594C63.2993 54.0594 64.0644 53.3105 64.0644 52.379C64.0644 51.4475 63.2993 50.6986 62.3702 50.6986Z"
        fill="#ACB8CC"></path>
</svg>