<svg width="120" height="121" fill="none" viewBox="0 0 120 121">
    <path
        d="M60.9498 112.373C33.0627 112.373 10.3733 89.6848 10.3733 61.7969C10.3733 33.909 33.0619 11.2204 60.9498 11.2204C88.8377 11.2204 111.526 33.909 111.526 61.7969C111.526 89.685 88.8388 112.373 60.9498 112.373ZM60.9498 13.8169C34.4931 13.8169 12.967 35.3424 12.967 61.7997C12.967 88.2572 34.4914 109.782 60.9498 109.782C87.4081 109.782 108.933 88.2581 108.933 61.7997C108.934 35.343 87.4081 13.8169 60.9498 13.8169Z"
        fill="#ACB8CC"></path>
    <path
        d="M53.7885 76.3106C53.4215 76.3106 53.0568 76.1562 52.8005 75.8539C51.2068 73.9819 49.6109 72.3062 48.0664 70.6849C43.2864 65.6651 39.1572 61.3309 39.6378 55.3426C39.8196 53.084 40.87 51.0302 42.5963 49.5603C44.3225 48.0904 46.5175 47.3817 48.7773 47.5625C52.2759 47.8429 54.2045 49.5603 55.6208 52.1771C57.4369 49.821 59.6121 48.4331 63.1129 48.7135C65.3759 48.8953 67.4317 49.9458 68.9027 51.6721C70.3737 53.3983 71.0835 55.5932 70.9028 57.853C70.767 59.5486 70.2883 61.1116 69.4394 62.632C69.09 63.2574 68.3003 63.4808 67.6748 63.1325C67.0494 62.7831 66.826 61.9934 67.1742 61.3679C67.838 60.1795 68.2115 58.9626 68.3167 57.6461C68.4426 56.0776 67.9497 54.553 66.9278 53.3546C65.9059 52.1552 64.4775 51.4257 62.9046 51.2986C60.1213 51.0763 58.5659 52.0905 56.5189 55.4772C56.2648 55.8978 55.796 56.1388 55.3053 56.0994C54.8157 56.0599 54.3907 55.7478 54.2067 55.2921C52.7258 51.6216 51.3555 50.3719 48.5691 50.1484C47.0006 50.0224 45.4771 50.5153 44.2776 51.5362C43.078 52.557 42.3487 53.9831 42.2227 55.5515C41.835 60.3829 45.4134 64.1412 49.9437 68.8982C51.2438 70.263 52.5801 71.6661 53.933 73.203C55.519 71.8974 57.0679 70.7221 58.5739 69.5785L58.9726 69.2762C59.5422 68.8435 60.356 68.9542 60.7898 69.5237C61.2236 70.0944 61.1118 70.9082 60.5423 71.3409L60.1436 71.6443C58.356 73.0014 56.507 74.4056 54.6297 76.0037C54.3843 76.2086 54.0853 76.3104 53.7885 76.3104V76.3106Z"
        fill="#FF9C9C"></path>
    <path
        d="M114.768 114.967C114.436 114.967 114.104 114.84 113.851 114.587L109.312 110.048C108.806 109.542 108.806 108.72 109.312 108.214L112.934 104.593L109.312 100.971C108.806 100.465 108.806 99.6433 109.312 99.1372L113.851 94.598C114.357 94.092 115.179 94.092 115.685 94.598C116.191 95.1041 116.191 95.9256 115.685 96.4316L112.064 100.054L115.686 103.676C116.192 104.182 116.192 105.004 115.686 105.51L112.064 109.132L115.686 112.754C116.192 113.26 116.192 114.082 115.686 114.588C115.433 114.841 115.1 114.967 114.768 114.967L114.768 114.967Z"
        fill="#ACB8CC"></path>
    <path
        d="M22.0496 14.6806C21.9455 14.6806 21.8393 14.6686 21.7341 14.6412L14.8182 12.9127C14.3648 12.7999 14.0077 12.4516 13.8828 12.0003C13.758 11.5501 13.885 11.0671 14.2158 10.7374L17.6903 7.26292L11.4196 6.00876C10.7175 5.86856 10.2618 5.18507 10.4021 4.48297C10.5423 3.78087 11.2257 3.32411 11.9278 3.46541L20.5733 5.19494C21.0421 5.28914 21.4221 5.63308 21.5602 6.09092C21.6982 6.54877 21.5744 7.04494 21.2359 7.38341L17.6684 10.951L22.3629 12.1241C23.0573 12.2972 23.4801 13.0015 23.306 13.697C23.1592 14.2863 22.6301 14.6806 22.0496 14.6806L22.0496 14.6806Z"
        fill="#ACB8CC"></path>
    <path
        d="M68.3668 81.515C68.3329 81.515 68.2978 81.5139 68.2628 81.5106C67.9199 81.4832 67.6023 81.32 67.3788 81.0582C66.1455 79.6102 64.9089 78.3111 63.7117 77.0538C59.9504 73.104 56.7005 69.692 57.0849 64.9109C57.3697 61.3598 60.3819 58.5776 63.9405 58.5776C64.1256 58.5776 64.3129 58.5853 64.497 58.5995C67.1707 58.8142 68.7095 60.053 69.8322 61.9557C71.0272 60.5263 72.5804 59.4649 74.9288 59.4649C75.1567 59.4649 75.3933 59.4748 75.6342 59.4945C77.4689 59.6413 79.1359 60.4934 80.3299 61.8944C81.5227 63.2942 82.0988 65.0753 81.9521 66.9077C81.5687 71.6867 77.8172 74.5356 73.4732 77.8337C72.0887 78.8841 70.6582 79.9718 69.208 81.2061C68.9725 81.4055 68.6746 81.515 68.3668 81.515L68.3668 81.515ZM63.9418 61.1725C61.7248 61.1725 59.8484 62.9064 59.6712 65.1189C59.3798 68.7434 62.1215 71.6217 65.5914 75.265C66.5443 76.2651 67.5213 77.2914 68.5126 78.4087C69.6715 77.4634 70.803 76.6036 71.905 75.7667C75.9117 72.7249 79.076 70.3218 79.3662 66.6996C79.4582 65.5582 79.099 64.4487 78.3552 63.5767C77.6115 62.7037 76.5709 62.1725 75.4264 62.0805C73.3891 61.9162 72.2806 62.6336 70.7361 65.1879C70.482 65.6074 70.0154 65.8495 69.5225 65.8101C69.0329 65.7707 68.6079 65.4585 68.4239 65.0028C67.3241 62.2765 66.3197 61.35 64.289 61.1868C64.174 61.1769 64.0568 61.1726 63.9418 61.1726L63.9418 61.1725Z"
        fill="#FF9C9C"></path>
    <path
        d="M40.2031 7.33117C40.2031 8.76386 39.0421 9.9249 37.6094 9.9249C36.1767 9.9249 35.0156 8.76386 35.0156 7.33117C35.0156 5.89956 36.1767 4.73743 37.6094 4.73743C39.0421 4.73743 40.2031 5.89956 40.2031 7.33117Z"
        fill="#ACB8CC"></path>
    <path
        d="M92.0749 9.92485C92.0749 11.3576 90.9139 12.5186 89.4812 12.5186C88.0496 12.5186 86.8875 11.3576 86.8875 9.92485C86.8875 8.49216 88.0496 7.33112 89.4812 7.33112C90.9139 7.33112 92.0749 8.49216 92.0749 9.92485Z"
        fill="#ACB8CC"></path>
    <path
        d="M99.8562 113.672C99.8562 115.104 98.6951 116.265 97.2624 116.265C95.8297 116.265 94.6687 115.104 94.6687 113.672C94.6687 112.24 95.8297 111.079 97.2624 111.079C98.6951 111.079 99.8562 112.24 99.8562 113.672Z"
        fill="#ACB8CC"></path>
    <path
        d="M6.48448 82.5469C6.48448 83.9785 5.32344 85.1395 3.89074 85.1395C2.45914 85.1395 1.2981 83.9785 1.2981 82.5469C1.2981 81.1142 2.45914 79.9531 3.89074 79.9531C5.32344 79.9531 6.48448 81.1142 6.48448 82.5469Z"
        fill="#ACB8CC"></path>
    <path
        d="M29.828 113.672C29.828 115.104 28.667 116.265 27.2353 116.265C25.8026 116.265 24.6416 115.104 24.6416 113.672C24.6416 112.24 25.8026 111.079 27.2353 111.079C28.667 111.079 29.828 112.24 29.828 113.672Z"
        fill="#ACB8CC"></path>
    <path
        d="M113.17 42.3453C113.017 42.3453 112.862 42.3179 112.711 42.2609C111.572 41.8304 110.471 41.4821 109.405 41.147C105.94 40.0527 102.946 39.1085 101.587 36.0974C101.048 34.9024 101.006 33.5694 101.47 32.3425C101.935 31.1157 102.849 30.1442 104.046 29.6042C104.751 29.2855 105.416 29.131 106.08 29.131C106.777 29.131 107.414 29.3063 107.992 29.5757C108.341 28.3906 109.075 27.3347 110.627 26.6349C111.267 26.3468 111.944 26.2 112.643 26.2C114.569 26.2 116.326 27.3337 117.118 29.0896C118.478 32.1017 117.205 34.9716 115.732 38.2947C115.28 39.3144 114.813 40.3681 114.382 41.505C114.187 42.0264 113.694 42.3451 113.17 42.3451L113.17 42.3453ZM106.081 31.7261C105.793 31.7261 105.477 31.806 105.114 31.9692C104.549 32.2244 104.117 32.6834 103.898 33.2617C103.679 33.8401 103.698 34.4677 103.953 35.0307C104.834 36.9848 107.08 37.6934 110.187 38.6737C110.914 38.9037 111.658 39.1381 112.428 39.4032C112.738 38.6529 113.054 37.9409 113.361 37.2454C114.682 34.2661 115.636 32.1126 114.755 30.1576C114.381 29.3296 113.552 28.795 112.643 28.795C112.315 28.795 111.997 28.864 111.694 29.001C110.777 29.415 110.355 29.9199 110.279 31.8235C110.259 32.3142 109.965 32.7523 109.517 32.9539C109.069 33.1554 108.545 33.0875 108.165 32.7775C107.261 32.0393 106.638 31.726 106.081 31.726L106.081 31.7261Z"
        fill="#FF9C9C"></path>
    <path
        d="M107.772 19.2512H107.771C105.43 19.2512 103.123 18.2281 100.452 17.0441C99.294 16.5304 98.0968 16.0002 96.802 15.5106C96.48 15.389 96.2204 15.1448 96.0791 14.8304C95.9378 14.5171 95.9269 14.1601 96.0485 13.838C96.5392 12.5422 96.9335 11.2903 97.3157 10.0812C98.5436 6.19167 99.6039 2.83131 102.947 1.32301C103.649 1.00647 104.394 0.845459 105.159 0.845459C107.277 0.845459 109.208 2.09303 110.079 4.02412C110.882 5.80732 110.663 7.26419 110.02 8.54003C111.403 8.90259 112.641 9.70326 113.444 11.4854C114.036 12.7976 114.082 14.262 113.573 15.6082C113.063 16.9554 112.06 18.0234 110.748 18.6149C109.804 19.0443 108.83 19.2513 107.772 19.2513L107.772 19.2512ZM98.9107 13.5545C99.8154 13.9247 100.67 14.3037 101.504 14.6739C103.906 15.7386 105.981 16.6575 107.772 16.6586C108.454 16.6586 109.079 16.5261 109.682 16.2545C110.362 15.9477 110.884 15.3935 111.148 14.6947C111.413 13.9959 111.389 13.2357 111.082 12.5555C110.583 11.4482 109.98 10.9388 107.73 10.849C107.24 10.8293 106.802 10.5347 106.6 10.0867C106.399 9.63865 106.466 9.11511 106.776 8.73502C108.197 6.98906 108.215 6.20042 107.715 5.09313C107.263 4.08872 106.259 3.44029 105.161 3.44029C104.765 3.44029 104.38 3.52353 104.014 3.68893C101.728 4.71964 100.915 7.29689 99.7894 10.8633C99.5145 11.7352 99.233 12.629 98.911 13.5546L98.9107 13.5545Z"
        fill="#FF9C9C"></path>
    <path
        d="M14.6107 112.376C14.4585 112.376 14.3029 112.349 14.1518 112.292C13.0126 111.861 11.9118 111.513 10.8461 111.178C7.38056 110.084 4.38697 109.139 3.02869 106.128C1.91582 103.662 3.01883 100.749 5.48769 99.6353C6.19308 99.3166 6.85795 99.1621 7.52172 99.1621C8.21945 99.1621 8.85473 99.3385 9.43416 99.6069C9.78357 98.4217 10.5174 97.3658 12.0695 96.6671C12.7092 96.379 13.3872 96.2322 14.0849 96.2322C16.0116 96.2322 17.7686 97.367 18.5604 99.1229C19.9198 102.135 18.647 105.005 17.1738 108.328C16.7225 109.348 16.2548 110.401 15.8243 111.538C15.6272 112.056 15.1343 112.376 14.6107 112.376V112.376ZM7.5218 101.756C7.23374 101.756 6.91829 101.836 6.55464 101.999C5.39031 102.525 4.86893 103.898 5.39359 105.062C6.27532 107.015 8.52066 107.723 11.627 108.704C12.3543 108.934 13.098 109.168 13.868 109.433C14.178 108.683 14.4935 107.971 14.8012 107.276C16.1222 104.296 17.0773 102.144 16.1956 100.189C15.8221 99.3605 14.9929 98.8259 14.0838 98.8259C13.7563 98.8259 13.4376 98.895 13.1353 99.0319C12.2185 99.4459 11.7968 99.9508 11.7201 101.854C11.7004 102.345 11.4057 102.783 10.9577 102.985C10.5097 103.186 9.98619 103.118 9.6061 102.808C8.70245 102.07 8.07812 101.756 7.52169 101.756L7.5218 101.756Z"
        fill="#FF9C9C"></path>
    <path
        d="M6.48434 37.1578C2.90919 37.1578 0 34.2486 0 30.6734C0 27.0983 2.90919 24.1891 6.48434 24.1891C10.0595 24.1891 12.9687 27.0983 12.9687 30.6734C12.9687 34.2497 10.0595 37.1578 6.48434 37.1578ZM6.48434 26.7839C4.3397 26.7839 2.59374 28.5288 2.59374 30.6746C2.59374 32.8192 4.33861 34.5652 6.48434 34.5652C8.62899 34.5652 10.375 32.8203 10.375 30.6746C10.375 28.5288 8.63008 26.7839 6.48434 26.7839Z"
        fill="#ACB8CC"></path>
    <path
        d="M60.9501 99.4074C40.2134 99.4074 23.3423 82.5361 23.3423 61.7996C23.3423 41.0632 40.2136 24.1918 60.9501 24.1918C81.6865 24.1918 98.5579 41.0632 98.5579 61.7996C98.5579 82.5361 81.6865 99.4074 60.9501 99.4074ZM60.9501 26.7856C41.6437 26.7856 25.936 42.4927 25.936 61.7996C25.936 81.106 41.6431 96.8137 60.9501 96.8137C80.2565 96.8137 95.9641 81.1066 95.9641 61.7996C95.9641 42.4924 80.257 26.7856 60.9501 26.7856Z"
        fill="#ACB8CC"></path>
    <path
        d="M60.9499 34.564C60.2336 34.564 59.6531 33.9835 59.6531 33.2671V4.73602C59.6531 4.01967 60.2336 3.43915 60.9499 3.43915C61.6663 3.43915 62.2468 4.01967 62.2468 4.73602V33.2671C62.2468 33.9835 61.6663 34.564 60.9499 34.564Z"
        fill="#ACB8CC"></path>
    <path
        d="M60.9499 120.155C60.2336 120.155 59.6531 119.574 59.6531 118.858V90.3266C59.6531 89.6102 60.2336 89.0297 60.9499 89.0297C61.6663 89.0297 62.2468 89.6102 62.2468 90.3266V118.858C62.2468 119.574 61.6663 120.155 60.9499 120.155Z"
        fill="#ACB8CC"></path>
    <path
        d="M118.013 63.0951H89.4814C88.7651 63.0951 88.1846 62.5146 88.1846 61.7982C88.1846 61.0819 88.7651 60.5013 89.4814 60.5013H118.013C118.729 60.5013 119.309 61.0819 119.309 61.7982C119.309 62.5146 118.729 63.0951 118.013 63.0951Z"
        fill="#ACB8CC"></path>
    <path
        d="M32.422 63.0951H3.89086C3.17451 63.0951 2.59399 62.5146 2.59399 61.7982C2.59399 61.0819 3.17451 60.5013 3.89086 60.5013H32.422C33.1383 60.5013 33.7188 61.0819 33.7188 61.7982C33.7188 62.5146 33.1383 63.0951 32.422 63.0951Z"
        fill="#ACB8CC"></path>
</svg>