<svg xmlns="http://www.w3.org/2000/svg" viewBox="0 0 60 60"><circle cx="30" cy="30" r="30" fill="#ed147d"/><path d="M42.92 23.91a.71.71 0 0 1-.71.71H17.79a.71.71 0 0 1-.71-.71v-.33a.71.71 0 0 1 .71-.71h24.42a.71.71 0 0 1 .71.71zM42.92 29.93a.71.71 0 0 1-.71.71H17.79a.71.71 0 0 1-.71-.71v-.33a.71.71 0 0 1 .71-.71h24.42a.71.71 0 0 1 .71.71zM42.92 36.56a.71.71 0 0 1-.71.71H17.79a.71.71 0 0 1-.71-.71v-.33a.71.71 0 0 1 .71-.71h24.42a.71.71 0 0 1 .71.71z" fill="#ececec"/><circle cx="36.89" cy="23.6" r="2.56" fill="#ececec"/><circle cx="23.09" cy="29.77" r="2.56" fill="#ececec"/><circle cx="32.56" cy="36.4" r="2.56" fill="#ececec"/></svg>
