<svg xmlns="http://www.w3.org/2000/svg" viewBox="0 0 60 60"><circle cx="30" cy="30" r="30" fill="#ed147d"/><path d="M31.56 42.26h-1.88v-7.92l10.08-12.55a.85.85 0 0 0-.66-1.37H18.3a.85.85 0 0 0-.65 1.38l2.95 3.58 7.39 9v7.91H26a.85.85 0 0 0 0 1.69h5.59a.84.84 0 1 0 0-1.69zm-2.74-9.56l-5.78-7h11.43zm8.52-10.6L35.82 24H21.65l-1.55-1.89z" fill="#ececec"/><path d="M40 16.05a4.56 4.56 0 0 0-4 2.34.85.85 0 0 0 1.48.82A2.87 2.87 0 1 1 40 23.48a.85.85 0 0 0 0 1.69 4.56 4.56 0 0 0 0-9.11z" fill="#ececec"/></svg>
