<svg class="bar-icon js-bar-icon" width="24" height="24" viewBox="0 0 24 24" fill="none"
    xmlns="http://www.w3.org/2000/svg">
    <path fill-rule="evenodd" clip-rule="evenodd"
        d="M9 14.5C9 15.7069 9.85992 16.7175 11 16.9498V19.5C11 19.776 11.224 20 11.5 20C11.776 20 12 19.776 12 19.5V16.9498C13.1401 16.7175 14 15.7069 14 14.5C14 13.122 12.879 12 11.5 12C10.121 12 9 13.122 9 14.5ZM13 14.5C13 15.3254 12.3296 15.9974 11.5048 16L11.5 16L11.4952 16C10.6704 15.9974 9.99998 15.3254 9.99998 14.5C9.99998 13.673 10.673 13 11.5 13C12.327 13 13 13.673 13 14.5Z"
        fill="#A0A8B4"></path>
    <path fill-rule="evenodd" clip-rule="evenodd"
        d="M17.5 7V9C18.163 9 18.7989 9.26339 19.2678 9.73223C19.7366 10.2011 20 10.837 20 11.5V20.5C20 21.163 19.7366 21.7989 19.2678 22.2678C18.7989 22.7366 18.163 23 17.5 23H5.5C4.83696 23 4.20107 22.7366 3.73223 22.2678C3.26339 21.7989 3 21.163 3 20.5V11.5C3 10.837 3.26339 10.2011 3.73223 9.73223C4.20107 9.26339 4.83696 9 5.5 9V7C5.5 5.4087 6.13214 3.88258 7.25736 2.75736C8.38258 1.63214 9.9087 1 11.5 1C13.0913 1 14.6174 1.63214 15.7426 2.75736C16.8679 3.88258 17.5 5.4087 17.5 7ZM7.96447 3.46447C7.02678 4.40215 6.5 5.67392 6.5 7V9H16.5V7C16.5 5.67392 15.9732 4.40215 15.0355 3.46447C14.0979 2.52678 12.8261 2 11.5 2C10.1739 2 8.90215 2.52678 7.96447 3.46447ZM18.5607 21.5607C18.842 21.2794 19 20.8978 19 20.5V11.5C19 11.1022 18.842 10.7206 18.5607 10.4393C18.2794 10.158 17.8978 10 17.5 10H5.5C5.10218 10 4.72064 10.158 4.43934 10.4393C4.15804 10.7206 4 11.1022 4 11.5V20.5C4 20.8978 4.15804 21.2794 4.43934 21.5607C4.72064 21.842 5.10218 22 5.5 22H17.5C17.8978 22 18.2794 21.842 18.5607 21.5607Z"
        fill="#A0A8B4"></path>
</svg>