<svg class="reg-gender__icon" width="24" height="24" viewBox="0 0 24 24" fill="none"
    xmlns="http://www.w3.org/2000/svg">
    <path
        d="M11.8314 5.21362C12.9794 5.21362 13.9106 4.27034 13.9106 3.10679C13.9107 1.94323 12.9794 1 11.8314 1C10.6827 1 9.75146 1.94323 9.75146 3.10679C9.75151 4.27034 10.6827 5.21362 11.8314 5.21362Z"
        fill="white"></path>
    <path
        d="M17.6789 11.7877L14.36 6.60138C14.1324 6.24558 13.7518 6.02039 13.331 6.01323C13.3198 6.01301 10.3423 6.01314 10.3311 6.01323C9.91544 6.01602 9.52979 6.24554 9.3021 6.60138L5.98316 11.7877C5.79474 12.0821 5.78038 12.4574 5.94562 12.7657C6.11131 13.0739 6.43002 13.2659 6.77635 13.2659C7.09683 13.2659 7.39516 13.1016 7.56962 12.8292L8.74462 10.9935L7.92973 15.3259C7.9002 15.4827 7.94125 15.6444 8.04173 15.7672C8.14195 15.8903 8.29114 15.9613 8.44869 15.9613H9.05843V21.8588C9.05843 22.4892 9.56275 23 10.185 23C10.8071 23 11.3113 22.4892 11.3113 21.8592V15.9612H12.3511V21.8588C12.3511 22.4888 12.8554 22.9996 13.4774 22.9996C14.0994 22.9996 14.6037 22.4888 14.6037 21.8588V15.9612H15.2134C15.3711 15.9612 15.5202 15.8903 15.6203 15.7672C15.7209 15.6444 15.7619 15.4827 15.7325 15.3259L14.9174 10.9931L16.0924 12.8292C16.2669 13.1016 16.5653 13.2658 16.8857 13.2658C17.232 13.2658 17.5507 13.0739 17.7164 12.7656C17.8817 12.4574 17.8674 12.0821 17.6789 11.7877Z"
        fill="white"></path>
</svg>