<?xml version="1.0" encoding="utf-8"?>
<!-- Generator: Adobe Illustrator 16.0.4, SVG Export Plug-In . SVG Version: 6.00 Build 0)  -->
<!DOCTYPE svg PUBLIC "-//W3C//DTD SVG 1.1//EN" "http://www.w3.org/Graphics/SVG/1.1/DTD/svg11.dtd">
<svg version="1.1" xmlns="http://www.w3.org/2000/svg" xmlns:xlink="http://www.w3.org/1999/xlink" x="0px" y="0px" width="24px"
	 height="24px" viewBox="0 0 24 24" enable-background="new 0 0 24 24" xml:space="preserve">
<path fill="#fff" d="M13.076,3.871l7.779,7.778C20.951,11.744,20.999,11.871,21,12c0.003,0.135-0.049,0.26-0.145,0.357
	l-7.779,7.778c-0.19,0.192-0.512,0.193-0.708-0.004l-0.701-0.699c-0.205-0.207-0.199-0.516-0.003-0.711L17.383,13H3.271
	C3,13,2.774,12.773,2.774,12.496v-0.992C2.774,11.215,2.997,11,3.271,11h14.108l-5.715-5.715c-0.192-0.191-0.194-0.513,0.003-0.711
	l0.701-0.699c0.102-0.104,0.23-0.152,0.359-0.152C12.854,3.723,12.98,3.771,13.076,3.871L13.076,3.871z"/>
</svg>
