<svg xmlns="http://www.w3.org/2000/svg" viewBox="0 0 60 60"><circle cx="30" cy="30" r="30" fill="#ed147d"/><path d="M32.37 32.84c-.53-.17-1-.33-1.34-.46v-1.57a17.31 17.31 0 0 0 3.35-5.27c0-.05 1.38-5.21-1.15-8.53-1.3-1.7-3.35-2.57-6.07-2.57a7.17 7.17 0 0 0-5.72 2.25c-1.57 1.82-2.09 4.59-1.55 8.22v.17a14.12 14.12 0 0 0 2.35 4.34 15.72 15.72 0 0 0 1 1.27v1.69c-.61.23-1.78.6-2.7.89-2.86.91-3.73 1.23-4.09 1.56-1.36 1.25-1 3.86-.91 4.15a.83.83 0 0 0 1 .69.85.85 0 0 0 .69-1c-.1-.62-.15-2.06.36-2.59.39-.22 2.26-.82 3.5-1.22a15.74 15.74 0 0 0 3.53-1.3 1 1 0 0 0 .34-.72v-.65a3.94 3.94 0 0 0 2.24.81 4 4 0 0 0 2.15-.73v.6a1 1 0 0 0 .29.68 7.9 7.9 0 0 0 2.19.89.84.84 0 0 0 1.06-.51.84.84 0 0 0-.52-1.09zm-5.18-1.53c-.88 0-2.2-1.06-3.51-2.83a14.81 14.81 0 0 1-2.08-3.61v-.21c-.32-2.14-.38-5.08 1.15-6.86a5.55 5.55 0 0 1 4.44-1.67c2.17 0 3.76.64 4.72 1.91a7 7 0 0 1 1.19 4.13 11.55 11.55 0 0 1-.32 2.93 15 15 0 0 1-2.09 3.54c-1.33 1.69-2.59 2.67-3.5 2.67zM40.65 40.76a.78.78 0 0 1-.55-.23l-2-2a.78.78 0 0 1 0-1.1.77.77 0 0 1 1.09 0l1.43 1.43 3.06-3.07a.77.77 0 0 1 1.09 1.1l-3.61 3.61a.78.78 0 0 1-.51.26z" fill="#ececec"/><path d="M41.12 45.56a7.38 7.38 0 1 1 7.38-7.38 7.39 7.39 0 0 1-7.38 7.38zm0-13a5.63 5.63 0 1 0 5.63 5.62 5.62 5.62 0 0 0-5.63-5.62z" fill="#ececec"/></svg>
