<svg xmlns="http://www.w3.org/2000/svg" viewBox="0 0 60 60">
    <circle cx="30" cy="30" r="30" fill="#ed147d" />
    <path
        d="M21.94 41.87a.84.84 0 0 1-.83-1l1.46-8.49-6.17-6a.85.85 0 0 1 .47-1.44l8.52-1.24L29.2 16a.84.84 0 0 1 1.52 0l3.81 7.72 8.52 1.24a.85.85 0 0 1 .47 1.44l-6.17 6 1.46 8.49a.84.84 0 0 1-1.23.89l-7.62-4-7.62 4a.84.84 0 0 1-.4.09zM30 36a.84.84 0 0 1 .39.1l6.5 3.42-1.24-7.24a.84.84 0 0 1 .24-.75l5.26-5.13-7.27-1.06a.84.84 0 0 1-.64-.46L30 18.26l-3.25 6.59a.84.84 0 0 1-.64.46l-7.27 1.06 5.26 5.13a.84.84 0 0 1 .24.75l-1.24 7.24 6.5-3.42A.84.84 0 0 1 30 36zM40.82 19.09A1.3 1.3 0 0 0 39 17.26c-.51.51-1.43 2.25-.92 2.75s2.23-.41 2.74-.92zM19.19 19.09A1.3 1.3 0 1 1 21 17.26c.51.51 1.43 2.25.92 2.75s-2.23-.41-2.73-.92zM28.66 45.2a1.3 1.3 0 0 0 2.59 0c0-.72-.58-2.6-1.3-2.6s-1.29 1.88-1.29 2.6zM44 35.69a1.3 1.3 0 1 0 1.22-2.29c-.63-.34-2.56-.71-2.9-.08s1.04 2.03 1.68 2.37zM16 35.69a1.3 1.3 0 0 1-1.22-2.29c.63-.34 2.56-.71 2.9-.08s-1.04 2.03-1.68 2.37z"
        fill="#ececec" />
</svg>